<svg version="1.2" xmlns="http://www.w3.org/2000/svg" viewBox="0 0 1191 224" width="1191" height="224">
	<path id="B" fill-rule="evenodd" class="s0" d="m15.3 26.3l24.2 1.4l35-1.5q23.3 0 37.8 11q14.7 11 14.7 30.3q0 28.5-36.8 39.8q20.6 0 34.3 12.7q14 12.8 14 32.8q0 49.2-64 49.2l-30.2-1.5l-30 1.5q-0.8-0.7-0.8-4.2q0-3.8 1.5-5.3q9 0 12.8-3q4-3.2 4-10l1.2-131q0-6.7-3.7-9.7q-3.8-3-13-3q-1.5-1.3-1.5-5q0-4 0.5-4.5zm36 78.5h11.2q19.5-0.1 31.5-8.8q12.3-9 12.3-25q0-32-41-32q-8 0-17 1.5zm24 83.3q18.2 0 29.5-9q11.2-9 11.2-26q0-17-13.7-25.8q-13.8-9-33.5-9q-7.8 0-16.8 1.5l2.3 49.5q0.5 11 5 15q4.5 3.8 16 3.8z" />
	<path id="r" class="s0" d="m219 202l-30-1.5l-31.8 1.5q-0.7-0.8-0.7-4q0-3.5 1.5-5q10 0 14.5-2.8q4.8-3 4.8-9.9l0.7-70q0-7.1-4.7-9.8q-4.5-3-14.8-3q-0.7-0.7-0.7-4q0-3.5 1.5-5q1 0 4.7-0.5q3.8-0.5 4.8-0.5q1-0.3 3.7-0.7q3-0.8 4.5-1.8q5-2.7 6.8-4.5q2-2 5.2-2q3.3 0 4.8 1l2.5 26q4.5-10 14.5-18q10.2-8 21.7-8q6.8 0 11.3 4.5q4.7 4.2 4.7 10.5q0 6-3.5 9.8q-3.5 3.4-9 3.5q-12 0-12-8.6q0-2.2 1.3-4q1.2-1.7 1.2-2.5q0-0.7-1.7-0.7q-6.3 0-17 14q-10.5 14-10.3 25.5l1.8 48.8q0.2 7 4.5 10q4.5 2.7 14.5 2.7q1.2 1.3 1.2 5q0 3.5-0.5 4z" />
	<path id="o" fill-rule="evenodd" class="s0" d="m275.3 187q-13.1-17.8-13.1-45q0-27.3 13-44.8q13.3-17.7 39.8-17.7q26.5 0 40.2 17.7q14 17.8 14 44.8q0 27-14 44.8q-13.7 17.7-40.2 17.7q-26.5 0-39.8-17.5zm67.3-9.5q5.5-11.5 5.5-33.3q0-21.7-8.8-37.2q-8.5-15.5-24.7-15.5q-22 0-28 19.8q-3 10.5-3 26.2q0 23.8 8.5 38.8q8.7 14.7 26.5 14.7q17.7 0 24-13.5z" />
	<path id="a" fill-rule="evenodd" class="s0" d="m422.5 204.5q-13.8 0-23.3-8.8q-9.4-8.9-9.4-22.7q0-13.8 11.5-22.8q11.7-9.2 38.7-14.7l17.3-3.5l-0.1-6.3q0-17.4-6-25.2q-5.7-8-19.5-8q-19 0-19 7.7q0 1.6 3 5q3 3.3 3 7.3q0 3.7-3.5 6.2q-3.2 2.3-8.7 2.3q-5.5 0-9-3.3q-3.3-3.2-3.3-9q0-12.7 12.3-21q12.5-8.2 27-8.2q23.5 0 33.5 10q10 9.7 10 26.3q0 0.4-1 59.2q-0.3 16 10.7 16q4.5 0 10.3-2.5q1.7 3 1.7 5.7q0 2.5-0.5 3q-2.5 2.5-8.7 5q-6.3 2.3-13.3 2.3q-10.7 0-18-13.5q-15.7 13.5-35.7 13.5zm22-56.3q-19.3 4.8-25.8 9.8q-6.2 4.7-6.2 13.2q0 8.3 4.5 13.5q4.5 5.3 11 5.3q6.5 0 15-2.8q8.8-3 15-6.7l-0.5-35.5z" />
	<path id="d" fill-rule="evenodd" class="s0" d="m641.5 196.3q0 2.7-6.3 5.9q-6.2 3.3-14.7 3.3q-8.3 0-13.3-5q-5-5-6.2-10l-1-5.3q-16 20.3-38.8 20.3q-22.5 0-36-16q-13.2-16.3-13.2-42.8q0-26.7 14.2-46.5q14.3-19.7 38-19.7q19.3 0 34 14.7l0.5-51.5q0-12.7-24.5-12.7q-0.7-0.8-0.7-4q0-3.5 1.5-5q17.2-1 30.5-9q1-1 4.2-1q3.3 0 4.8 1l4.7 161.2q0.5 17.5 11.3 17.5q4 0 9.2-2.2q1.8 2.2 1.8 6.7zm-107.8-49.5q0 19.5 8.8 32.5q8.7 13 25.7 13q8 0 16.3-6q8.5-6 13-14l0.5-52.7q0-10-10-18.5q-10-8.5-20-8.5q-34.3 0-34.3 54.3z" />
	<path id="h" class="s0" d="m686 12l2 89.3q21.8-21.8 42.3-21.8q17 0 27.2 10.8q10.5 10.7 11 28.2l1.8 61.8q0.2 7 4.5 10q4.2 2.7 14.2 2.7q1.3 1.3 1.3 5q0 3.5-0.5 4l-29.8-1.5l-30.5 1.5q-0.7-0.7-0.7-4q0-3.5 1.5-5q9.5 0 13.5-2.7q4.2-3 4.5-10l1-57.3q0.2-12.5-6.8-20.2q-7-7.8-19.5-7.8q-12.5 0-28 14.3q-4.7 4.5-5.5 5l2 66q0.3 7 4.3 10q4 2.7 13.5 2.7q1.2 1.3 1.2 5q0 3.5-0.5 4l-28.7-1.5l-31.8 1.5q-0.7-0.7-0.7-4q0-3.5 1.5-5q10 0 14.5-2.7q4.7-3 4.7-10l0.8-137.6q0-12.7-20.8-12.7q-0.7-0.8-0.7-4q0-3.5 1.5-5q9.5-0.8 15.5-2.3q6.2-1.7 11.2-6.7q1-1 4.3-1q3.2 0 4.7 1z" />
	<path id="e" fill-rule="evenodd" class="s0" d="m900 187.3q-17.3 17.2-43.3 17.2q-25.7 0-39.7-17.5q-14-17.8-14-44.8q0-27.2 13.8-45q13.9-17.7 38.2-17.7q24.5 0 36 17.2q11.7 17 11.7 44h-77.7q0 20.3 8.8 34.3q8.9 13.7 25.4 13.7q22.6 0 38-11.2q1.1 0.7 2.6 3.5q1.5 2.7 1.5 4q0 1-1.3 2.2zm-74.8-59.5l35.3 0.3q19 0 20.3-1.5q0.2-1.2 0.2-4.3q0-11.7-6.8-21.2q-6.7-9.5-19.4-9.5q-12.6 0-20.6 10q-7.7 9.7-9 26.2z" />
	<path id="a" fill-rule="evenodd" class="s0" d="m955.5 205.5q-13.8 0-23.3-8.8q-9.4-8.9-9.4-22.7q0-13.8 11.5-22.8q11.7-9.2 38.7-14.7l17.3-3.5l-0.1-6.3q0-17.4-6-25.2q-5.7-8-19.5-8q-19 0-19 7.7q0 1.6 3 5q3 3.3 3 7.3q0 3.7-3.5 6.2q-3.2 2.3-8.7 2.3q-5.5 0-9-3.3q-3.3-3.2-3.3-9q0-12.7 12.3-21q12.5-8.2 27-8.2q23.5 0 33.5 10q10 9.7 10 26.3q0 0.4-1 59.2q-0.3 16 10.7 16q4.5 0 10.3-2.5q1.7 3 1.7 5.7q0 2.5-0.5 3q-2.5 2.5-8.7 5q-6.3 2.3-13.3 2.3q-10.7 0-18-13.5q-15.7 13.5-35.7 13.5zm22-56.3q-19.3 4.8-25.8 9.8q-6.2 4.7-6.2 13.2q0 8.3 4.5 13.5q4.5 5.3 11 5.3q6.5 0 15-2.8q8.8-3 15-6.7l-0.5-35.5z" />
	<path id="d" fill-rule="evenodd" class="s0" d="m1173.5 195.3q0 2.7-6.3 5.9q-6.2 3.3-14.7 3.3q-8.3 0-13.3-5q-5-5-6.2-10l-1-5.3q-16 20.3-38.8 20.3q-22.5 0-36-16q-13.2-16.3-13.2-42.8q0-26.7 14.2-46.5q14.3-19.7 38-19.7q19.3 0 34 14.7l0.5-51.5q0-12.7-24.5-12.7q-0.7-0.8-0.7-4q0-3.5 1.5-5q17.2-1 30.5-9q1-1 4.2-1q3.3 0 4.8 1l4.7 161.2q0.5 17.5 11.3 17.5q4 0 9.2-2.2q1.8 2.2 1.8 6.7zm-107.8-49.5q0 19.5 8.8 32.5q8.7 13 25.7 13q8 0 16.3-6q8.5-6 13-14l0.5-52.7q0-10-10-18.5q-10-8.5-20-8.5q-34.3 0-34.3 54.3z" />
</svg>