<svg version="1.2" xmlns="http://www.w3.org/2000/svg" viewBox="0 0 452 194" width="452" height="194">
	<path id="i" class="s0" d="m194.3 28q-0.1 6.3-4.1 10q-4 3.5-10.5 3.5q-6.2 0-10-4q-3.7-4-3.7-10q0-6.3 3.7-10.3q3.8-4.2 9.8-4.2q6 0 10.2 4.3q4.5 4.2 4.5 10.7zm18.8 153l-30-1.5l-31.8 1.5q-0.7-0.7-0.7-4q0-3.5 1.5-5q10 0 14.5-2.7q4.7-3 4.7-10l0.3-67.8q0-12.8-20.8-12.8q-0.7-0.7-0.7-4q0-3.5 1.5-5q7.7 0 14.7-1.7q7-2 9.3-3.3q2.5-1.5 4-3q1.7-1.7 5-1.7q3.2 0 4.7 1l4 98.3q0.3 7 4.5 10q4.5 2.7 14.5 2.7q1.3 1.3 1.3 5q0 3.5-0.5 4z" />
	<path id="s" class="s0" d="m276 60.5q13.5 0 23.3 6.5q9.7 6.3 9.7 15.8q0 5.7-3.5 9.2q-3.3 3.5-8.5 3.5q-5 0-8.5-2.3q-3.3-2.2-3.3-5.7q0-3.8 1-6q1-2.3 1-3.8q0-5.5-11.4-5.5q-11.6 0-18.3 5q-6.5 5-6.5 12.1q0 7 6.5 12.7q6.5 5.8 15.8 10.5q9.2 4.8 18.4 10q9.3 5 15.8 12.8q6.5 7.7 6.5 17.2q0 16-13.5 24.5q-13.3 8.5-31 8.5q-17.8 0-30-8.3q-12-8.2-12-24.2q0-5.5 3.3-8.8q3.2-3.4 9-3.4q12.2 0 12.2 8.5q0 4-3 7.5q-3 3.5-3 4.7q0 4.5 7 7.8q7.3 3.2 15.8 3.2q8.5 0 17-4.2q8.5-4.5 8.5-14q0-9.8-22-19.8q-9.3-4-18.5-8.5q-9.3-4.7-15.8-12.5q-6.2-8-6.2-18q0-16.5 12-25.7q12.2-9.3 32.2-9.3z" />
	<path id="a" fill-rule="evenodd" class="s0" d="m365.5 186.5q-13.8 0-23.3-8.8q-9.4-8.9-9.4-22.7q0-13.8 11.5-22.8q11.7-9.2 38.7-14.7l17.3-3.5l-0.1-6.3q0-17.4-6-25.2q-5.7-8-19.5-8q-19 0-19 7.7q0 1.5 3 5q3 3.3 3 7.3q0 3.7-3.5 6.2q-3.2 2.3-8.7 2.3q-5.5 0-9-3.3q-3.3-3.2-3.3-9q0-12.7 12.3-21q12.5-8.2 27-8.2q23.5 0 33.5 10q10 9.7 10 26.3q0 0.4-1 59.2q-0.3 16 10.7 16q4.5 0 10.3-2.5q1.7 3 1.7 5.7q0 2.5-0.5 3q-2.5 2.5-8.7 5q-6.3 2.3-13.3 2.3q-10.7 0-18-13.5q-15.7 13.5-35.7 13.5zm22-56.3q-19.3 4.8-25.8 9.8q-6.2 4.7-6.2 13.2q0 8.3 4.5 13.5q4.5 5.3 11 5.3q6.5 0 15-2.8q8.8-3 15-6.7l-0.5-35.5z" />
	<path id="L" class="s0" d="m19.3 7.3l27.4 1.5l25.1-1.5q0.4 0.5 0.4 4.5q0 3.7-1.2 5q-9 0-12.8 3.2q-3.7 3-3.7 9.8l4 120.5q0.5 10.4 3.8 14.7q3.5 4 12.7 4h20.5q11.8 0 19.5-7.8q8-7.7 15.5-24.7q0.5-0.5 3.8-0.5q3.5 0 5.7 2.2l-13 47.3q-31.3-3.2-60-3.2q-28.5 0-48.8 0.7q-0.7-0.7-0.7-4.2q0-3.8 1.5-5.3q16.7 0 16.7-13l1.5-130.8q0-6.7-4-9.7q-3.7-3.2-12.7-3.2q-1.8-1.3-1.8-5q0-4 0.5-4.5z" />
</svg>