<svg version="1.2" xmlns="http://www.w3.org/2000/svg" viewBox="0 0 273 204" width="273" height="204">
	<title>New Project</title>
	<style>
		tspan { white-space:pre } 
		.s0 { fill: #0e5673 } 
	</style>
	<path id="B" class="s0" d="m183.5 19.2q-15.7 0-31.2 3.5q-30.3 7-56.5 25.7q-32.2 23-32.2 49v2.1q0 9.3 7 15.2q6.6 5.3 16.1 5.3q20.7 0 42.9-17.3q18.4-14.3 31.9-34.9q7-10.9 13.7-30.3h3.6q-9.2 27.6-19.1 42.9q-12.7 19.5-33.8 31.7q-21 12.2-37 12.2q-12.3 0-20.8-5.6q-10-6.7-10-18.4q0-29.5 32.3-54q26.5-20.1 59.8-28.1q15.9-3.8 36-3.8q17 0 29 3.6q11.1 3.2 26.6 11.9q10.7-6.1 24.5-10.9l1 3.5q-13.6 6.2-21.5 11.2q16.7 12.1 16.7 30.4q0 19.4-18 31.2q-14.2 9.2-36.1 12.2q20.9 11.1 20.9 27.2q0 26.5-26.1 42.3q-22.2 13.7-50.4 13.7q-14.8 0-14.8-13.2q0-15.5 21.4-26.6q15.6-8.2 35.4-11.5v3.6q-16 2.8-31.6 11.2q-20.2 10.8-20.2 23.3q0 8.6 11.6 8.6q18.7 0 38.3-22.5q19.2-21.8 19.2-40.9q0-7.6-6.8-14.1q-10.4 0.7-13.1 0.7q-4 0-6.9-2.1l-0.5-0.7l-0.3-1.2l0.5-1q2.9-2.1 4.8-2.1q3.5 0 14.5 2.8q1.1-0.4 3.4-1q16.3-5.3 26.7-19.9q10.7-14.5 10.7-31.6q0-5.7-5.6-16q-29.6 21.9-45.9 46.1q-33.6 49.4-37 53.8q-20.7 26.7-42.5 39.2q-26.6 15.2-63.9 15.2q-13.4 0-23-3.5q-13.9-5.1-13.9-16q0-8.7 5.1-14.5q5.2-6 13.9-6q8.2 0 8.2 7.2q0 10.7-10 10.7q-1.6 0-8.5-3.3h-1.3q-2.9 0-2.9 5.7q0 7.5 11.3 12q8.9 3.6 18.1 3.6q29.2 0 55.8-22.2q13.5-11.5 41.5-45.7q47.2-58 91.8-85.6q-13.6-8.3-25.3-11.3q-10.6-2.7-27.5-2.7z" />
</svg>